<svg xmlns="http://www.w3.org/2000/svg" viewBox="0 0 1200 800" width="1200" height="800" role="img" aria-label="study-and-exam">
  <defs>
    <linearGradient id="g" x1="0" y1="0" x2="1" y2="1">
      <stop offset="0" stop-color="#8b7bf7"/>
      <stop offset="1" stop-color="#2c1d6b"/>
    </linearGradient>
    <radialGradient id="glow" cx="0.18" cy="0.14" r="0.9">
      <stop offset="0" stop-color="#ffffff" stop-opacity="0.34"/>
      <stop offset="1" stop-color="#ffffff" stop-opacity="0"/>
    </radialGradient>
  </defs>
  <rect width="1200" height="800" fill="url(#g)"/>
  <rect width="1200" height="800" fill="url(#glow)"/>
  <circle cx="1030" cy="140" r="220" fill="#ffffff" opacity="0.06"/>
  <circle cx="150" cy="710" r="190" fill="#000000" opacity="0.08"/>
  <g transform="translate(770 170.0) scale(2.1)" fill="none" stroke="#ffffff" stroke-opacity="0.30" stroke-width="7" stroke-linecap="round" stroke-linejoin="round">
    <path d="M28 40 h58 a22 22 0 0 1 22 22 v112 a22 22 0 0 0 -22 -22 h-58 Z"/><path d="M180 40 h-58 a22 22 0 0 0 -22 22 v112 a22 22 0 0 1 22 -22 h58 Z"/>
  </g>
</svg>
