<svg xmlns="http://www.w3.org/2000/svg" width="1080" height="1080" viewBox="0 0 1080 1080">
<rect width="1080" height="1080" fill="#ff5a1f"/>

  <g transform="translate(88 88) scale(0.1640625)">
    <rect width="512" height="512" rx="116" fill="#ff5a1f"/>
    <path d="M116 180h280l-27 248a44 44 0 0 1-44 39H187a44 44 0 0 1-44-39z" fill="#ffffff"/>
    <path d="M196 180v-26a60 60 0 0 1 120 0v26" fill="none" stroke="#ffffff" stroke-width="28" stroke-linecap="round"/>
    <path d="M316 272C316 240 202 240 202 294C202 338 316 330 316 372C316 426 202 426 202 392"
          fill="none" stroke="#ff5a1f" stroke-width="34" stroke-linecap="round"/>
  </g>

<text x="192" y="144" font-family="DejaVu Sans" font-size="42" font-weight="bold" fill="#ffffff" text-anchor="start">Sudu</text>
<text x="192" y="176" font-family="DejaVu Sans" font-size="21" font-weight="normal" fill="#ffe6da" text-anchor="start">Delivery to PAU</text>
<text x="88" y="487" font-family="DejaVu Sans" font-size="62" font-weight="bold" fill="#ffffff" text-anchor="start">Send something</text>
<text x="88" y="556" font-family="DejaVu Sans" font-size="62" font-weight="bold" fill="#ffffff" text-anchor="start">to someone</text>
<text x="88" y="625" font-family="DejaVu Sans" font-size="62" font-weight="bold" fill="#ffffff" text-anchor="start">at PAU.</text>
<rect x="88" y="656" width="120" height="7" rx="4" fill="#ffffff" opacity="0.9"/>
<text x="88" y="726" font-family="DejaVu Sans" font-size="30" font-weight="normal" fill="#ffe6da" text-anchor="start">Pay from anywhere. A card link in pounds</text>
<text x="88" y="768" font-family="DejaVu Sans" font-size="30" font-weight="normal" fill="#ffe6da" text-anchor="start">or dollars, and we carry it to their block.</text>
<text x="540" y="998" font-family="DejaVu Sans" font-size="30" font-weight="bold" fill="#ffffff" text-anchor="middle">sudu.store</text>
</svg>